<svg width="800" height="800" viewBox="0 0 800 800" fill="none" xmlns="http://www.w3.org/2000/svg">
<rect width="800" height="800" fill="white"/>
<rect width="178" height="166" transform="translate(172 105)" fill="white"/>
<path d="M252.704 214.698V214.698C259.575 176.328 283.458 143.136 317.656 124.428L325.558 120.106C347.275 108.226 371.63 102 396.383 102H524.79C538.508 102 551.731 107.123 561.868 116.365V116.365C584.572 137.064 585.93 172.344 564.886 194.729L563.15 196.575C552.278 208.14 537.11 214.698 521.237 214.698H252.704ZM252.704 214.698L259.697 237.012C270.858 272.627 295.948 302.215 329.261 319.046V319.046C348.588 328.811 369.938 333.898 391.591 333.898H565.931C590.469 333.898 614.725 339.139 637.074 349.269L676.166 366.988C705.171 380.135 725.507 407.119 730.153 438.623V438.623C735.536 475.124 718.987 511.383 687.886 531.232L603.163 585.302M252.704 214.698L183.862 231.958C166.718 236.257 151.147 245.331 138.956 258.128V258.128C118.261 279.85 109.262 310.193 114.768 339.686L116.36 348.212C121.889 377.829 139.289 403.897 164.519 420.365L177.883 429.087C201.887 444.755 229.933 453.098 258.599 453.098H428.899C455.966 453.098 482.671 459.32 506.95 471.283V471.283C542.856 488.975 571.686 518.341 588.715 554.566L603.163 585.302M603.163 585.302L575.855 626.796C556.575 656.094 528.102 678.15 494.916 689.496V689.496C478.447 695.127 461.161 698 443.757 698H342.76C328.453 698 314.596 693 303.585 683.865L295.91 677.497C272.588 658.148 270.637 623.053 291.672 601.238V601.238C301.492 591.054 315.03 585.302 329.176 585.302H603.163Z" stroke="#6C71CC" stroke-width="45"/>
<g style="mix-blend-mode:soft-light">
<rect width="318" height="281" transform="translate(391 420)" fill="url(#paint0_radial_46_44)"/>
</g>
<g style="mix-blend-mode:soft-light">
<rect width="318" height="281" transform="translate(82 48)" fill="url(#paint1_radial_46_44)"/>
</g>
<defs>
<radialGradient id="paint0_radial_46_44" cx="0" cy="0" r="1" gradientUnits="userSpaceOnUse" gradientTransform="translate(159 140.5) rotate(90) scale(140.5 159)">
<stop stop-color="#F215BC"/>
<stop offset="0.0001" stop-color="#FF8BDB"/>
<stop offset="1" stop-color="#6C71CC"/>
</radialGradient>
<radialGradient id="paint1_radial_46_44" cx="0" cy="0" r="1" gradientUnits="userSpaceOnUse" gradientTransform="translate(159 140.5) rotate(90) scale(140.5 159)">
<stop stop-color="#F215BC"/>
<stop offset="0.0001" stop-color="#FF8BDB"/>
<stop offset="1" stop-color="#6C71CC"/>
</radialGradient>
</defs>
</svg>
